<?xml version="1.0" encoding="utf-8"?>
<svg version="1.1" xmlns:xlink="http://www.w3.org/1999/xlink" width="55px" height="55px" xmlns="http://www.w3.org/2000/svg">
  <g transform="matrix(1 0 0 1 -466 -1056 )">
    <path d="M 493.5 1056  C 508.9 1056  521 1068.1  521 1083.5  C 521 1098.9  508.9 1111  493.5 1111  C 478.1 1111  466 1098.9  466 1083.5  C 466 1068.1  478.1 1056  493.5 1056  Z " fill-rule="nonzero" fill="#aaaaaa" stroke="none" />
    <path d="M 493.5 1056.5  C 508.62 1056.5  520.5 1068.38  520.5 1083.5  C 520.5 1098.62  508.62 1110.5  493.5 1110.5  C 478.38 1110.5  466.5 1098.62  466.5 1083.5  C 466.5 1068.38  478.38 1056.5  493.5 1056.5  Z " stroke-width="1" stroke="#169bd5" fill="none" />
  </g>
</svg>