<?xml version="1.0" encoding="utf-8"?>
<svg version="1.1" xmlns:xlink="http://www.w3.org/1999/xlink" width="136px" height="188px" xmlns="http://www.w3.org/2000/svg">
  <g transform="matrix(1 0 0 1 -471 -675 )">
    <path d="M 92.76953125 43.8177083333333  C 96.08984375 46.9184027777778  97.75 50.5902777777778  97.75 54.8333333333333  C 97.75 55.8940972222222  97.3294270833333 56.8120659722222  96.48828125 57.5872395833333  C 95.6471354166667 58.3624131944444  94.6510416666667 58.75  93.5 58.75  C 92.3489583333333 58.75  91.3528645833333 58.3624131944444  90.51171875 57.5872395833333  C 89.6705729166667 56.8120659722222  89.25 55.8940972222222  89.25 54.8333333333333  C 89.25 51.0798611111111  86.859375 48.1831597222222  82.078125 46.1432291666667  C 77.296875 44.1032986111111  72.6041666666667 43.0833333333333  68 43.0833333333333  C 66.8489583333333 43.0833333333333  65.8528645833333 42.6957465277778  65.01171875 41.9205729166667  C 64.1705729166667 41.1453993055555  63.75 40.2274305555555  63.75 39.1666666666667  C 63.75 38.1059027777778  64.1705729166667 37.1879340277778  65.01171875 36.4127604166667  C 65.8528645833333 35.6375868055555  66.8489583333333 35.25  68 35.25  C 72.4270833333333 35.25  76.83203125 35.9027777777778  81.21484375 37.2083333333333  C 85.59765625 38.5138888888889  89.44921875 40.7170138888889  92.76953125 43.8177083333333  Z M 109.96875 76.8645833333333  C 115.989583333333 70.4184027777778  119 63.0746527777778  119 54.8333333333333  C 119 48.9583333333333  117.47265625 43.4913194444444  114.41796875 38.4322916666667  C 111.36328125 33.3732638888889  107.37890625 29.2322048611111  102.46484375 26.0091145833333  C 97.55078125 22.7860243055555  92.10546875 20.2565104166667  86.12890625 18.4205729166667  C 80.15234375 16.5846354166667  74.109375 15.6666666666667  68 15.6666666666667  C 61.890625 15.6666666666667  55.84765625 16.5846354166667  49.87109375 18.4205729166667  C 43.89453125 20.2565104166667  38.44921875 22.7860243055555  33.53515625 26.0091145833333  C 28.62109375 29.2322048611111  24.63671875 33.3732638888889  21.58203125 38.4322916666667  C 18.52734375 43.4913194444444  17 48.9583333333333  17 54.8333333333333  C 17 63.0746527777778  20.0104166666667 70.4184027777778  26.03125 76.8645833333333  C 26.9166666666667 77.7621527777778  28.2669270833333 79.1085069444444  30.08203125 80.9036458333333  C 31.8971354166667 82.6987847222222  33.2473958333333 84.0451388888889  34.1328125 84.9427083333333  C 45.4661458333333 97.4270833333333  51.7083333333333 109.585069444444  52.859375 121  L 83.140625 121  C 84.2916666666667 109.585069444444  90.5338541666667 97.4270833333333  101.8671875 84.9427083333333  C 102.752604166667 84.0451388888889  104.102864583333 82.6987847222222  105.91796875 80.9036458333333  C 107.733072916667 79.1085069444444  109.083333333333 77.7621527777778  109.96875 76.8645833333333  Z M 130.08984375 32.2513020833333  C 134.029947916667 39.2278645833333  136 46.7552083333333  136 54.8333333333333  C 136 67.4809027777778  131.440104166667 78.4149305555556  122.3203125 87.6354166666667  C 118.3359375 91.6336805555556  115.037760416667 95.1831597222222  112.42578125 98.2838541666667  C 109.813802083333 101.384548611111  107.1796875 105.280815972222  104.5234375 109.97265625  C 101.8671875 114.664496527778  100.361979166667 119.050347222222  100.0078125 123.130208333333  C 104.169270833333 125.414930555556  106.25 128.760416666667  106.25 133.166666666667  C 106.25 136.185763888889  105.143229166667 138.796875  102.9296875 141  C 105.143229166667 143.203125  106.25 145.814236111111  106.25 148.833333333333  C 106.25 153.076388888889  104.2578125 156.381076388889  100.2734375 158.747395833333  C 101.424479166667 160.624131944444  102 162.541666666667  102 164.5  C 102 168.253472222222  100.60546875 171.150173611111  97.81640625 173.190104166667  C 95.02734375 175.230034722222  91.5963541666667 176.25  87.5234375 176.25  C 85.7526041666667 179.840277777778  83.0963541666667 182.696180555556  79.5546875 184.817708333333  C 76.0130208333333 186.939236111111  72.1614583333333 188  68 188  C 63.8385416666667 188  59.9869791666667 186.939236111111  56.4453125 184.817708333333  C 52.9036458333333 182.696180555556  50.2473958333333 179.840277777778  48.4765625 176.25  C 44.4036458333333 176.25  40.97265625 175.230034722222  38.18359375 173.190104166667  C 35.39453125 171.150173611111  34 168.253472222222  34 164.5  C 34 162.541666666667  34.5755208333333 160.624131944444  35.7265625 158.747395833333  C 31.7421875 156.381076388889  29.75 153.076388888889  29.75 148.833333333333  C 29.75 145.814236111111  30.8567708333333 143.203125  33.0703125 141  C 30.8567708333333 138.796875  29.75 136.185763888889  29.75 133.166666666667  C 29.75 128.760416666667  31.8307291666667 125.414930555556  35.9921875 123.130208333333  C 35.6380208333333 119.050347222222  34.1328125 114.664496527778  31.4765625 109.97265625  C 28.8203125 105.280815972222  26.1861979166667 101.384548611111  23.57421875 98.2838541666667  C 20.9622395833333 95.1831597222222  17.6640625 91.6336805555556  13.6796875 87.6354166666667  C 4.55989583333333 78.4149305555556  0 67.4809027777778  0 54.8333333333333  C 0 46.7552083333333  1.97005208333333 39.2278645833333  5.91015625 32.2513020833333  C 9.85026041666667 25.2747395833333  15.0299479166667 19.4813368055555  21.44921875 14.87109375  C 27.8684895833333 10.2608506944444  35.12890625 6.62977430555553  43.23046875 3.97786458333333  C 51.33203125 1.3259548611111  59.5885416666667 0  68 0  C 76.4114583333333 0  84.66796875 1.3259548611111  92.76953125 3.97786458333333  C 100.87109375 6.62977430555553  108.131510416667 10.2608506944444  114.55078125 14.87109375  C 120.970052083333 19.4813368055555  126.149739583333 25.2747395833333  130.08984375 32.2513020833333  Z " fill-rule="nonzero" fill="#ffdf25" stroke="none" transform="matrix(1 0 0 1 471 675 )" />
  </g>
</svg>