<?xml version="1.0" encoding="utf-8"?>
<svg version="1.1" xmlns:xlink="http://www.w3.org/1999/xlink" width="67px" height="65px" xmlns="http://www.w3.org/2000/svg">
  <g transform="matrix(1 0 0 1 -1408 -322 )">
    <path d="M 1441.5 326  C 1458.02 326  1471 338.54  1471 354.5  C 1471 370.46  1458.02 383  1441.5 383  C 1424.98 383  1412 370.46  1412 354.5  C 1412 338.54  1424.98 326  1441.5 326  Z " fill-rule="nonzero" fill="#fce122" stroke="none" />
    <path d="M 1441.5 324.5  C 1458.86 324.5  1472.5 337.7  1472.5 354.5  C 1472.5 371.3  1458.86 384.5  1441.5 384.5  C 1424.14 384.5  1410.5 371.3  1410.5 354.5  C 1410.5 337.7  1424.14 324.5  1441.5 324.5  Z " stroke-width="5" stroke="#ffffff" fill="none" />
  </g>
</svg>