<?xml version="1.0" encoding="utf-8"?>
<svg version="1.1" xmlns:xlink="http://www.w3.org/1999/xlink" width="57px" height="55px" xmlns="http://www.w3.org/2000/svg">
  <g transform="matrix(1 0 0 1 -120 -543 )">
    <path d="M 148.5 543  C 164.46 543  177 555.1  177 570.5  C 177 585.9  164.46 598  148.5 598  C 132.54 598  120 585.9  120 570.5  C 120 555.1  132.54 543  148.5 543  Z " fill-rule="nonzero" fill="#ffffff" stroke="none" />
    <path d="M 148.5 543.5  C 164.18 543.5  176.5 555.38  176.5 570.5  C 176.5 585.62  164.18 597.5  148.5 597.5  C 132.82 597.5  120.5 585.62  120.5 570.5  C 120.5 555.38  132.82 543.5  148.5 543.5  Z " stroke-width="1" stroke="#ffffff" fill="none" />
  </g>
</svg>