<?xml version="1.0" encoding="utf-8"?>
<svg version="1.1" xmlns:xlink="http://www.w3.org/1999/xlink" width="41px" height="41px" xmlns="http://www.w3.org/2000/svg">
  <g transform="matrix(1 0 0 1 -1208 4700 )">
    <path d="M 1228.5 -4700  C 1239.98 -4700  1249 -4690.98  1249 -4679.5  C 1249 -4668.02  1239.98 -4659  1228.5 -4659  C 1217.02 -4659  1208 -4668.02  1208 -4679.5  C 1208 -4690.98  1217.02 -4700  1228.5 -4700  Z " fill-rule="nonzero" fill="#d7d7d7" stroke="none" />
    <path d="M 1228.5 -4699.5  C 1239.7 -4699.5  1248.5 -4690.7  1248.5 -4679.5  C 1248.5 -4668.3  1239.7 -4659.5  1228.5 -4659.5  C 1217.3 -4659.5  1208.5 -4668.3  1208.5 -4679.5  C 1208.5 -4690.7  1217.3 -4699.5  1228.5 -4699.5  Z " stroke-width="1" stroke="#d7d7d7" fill="none" />
  </g>
</svg>