<?xml version="1.0" encoding="utf-8"?>
<svg version="1.1" xmlns:xlink="http://www.w3.org/1999/xlink" width="28px" height="28px" xmlns="http://www.w3.org/2000/svg">
  <g transform="matrix(1 0 0 1 -1280 -817 )">
    <path d="M 1294 817  C 1301.84 817  1308 823.16  1308 831  C 1308 838.84  1301.84 845  1294 845  C 1286.16 845  1280 838.84  1280 831  C 1280 823.16  1286.16 817  1294 817  Z " fill-rule="nonzero" fill="#fce122" stroke="none" />
    <path d="M 1294 817.5  C 1301.56 817.5  1307.5 823.44  1307.5 831  C 1307.5 838.56  1301.56 844.5  1294 844.5  C 1286.44 844.5  1280.5 838.56  1280.5 831  C 1280.5 823.44  1286.44 817.5  1294 817.5  Z " stroke-width="1" stroke="#fce122" fill="none" />
  </g>
</svg>