<?xml version="1.0" encoding="utf-8"?>
<svg version="1.1" xmlns:xlink="http://www.w3.org/1999/xlink" width="28px" height="28px" xmlns="http://www.w3.org/2000/svg">
  <g transform="matrix(1 0 0 1 -1535 -817 )">
    <path d="M 1549 817.5  C 1556.56 817.5  1562.5 823.44  1562.5 831  C 1562.5 838.56  1556.56 844.5  1549 844.5  C 1541.44 844.5  1535.5 838.56  1535.5 831  C 1535.5 823.44  1541.44 817.5  1549 817.5  Z " fill-rule="nonzero" fill="#000000" stroke="none" fill-opacity="0.2" />
    <path d="M 1549 817.5  C 1556.56 817.5  1562.5 823.44  1562.5 831  C 1562.5 838.56  1556.56 844.5  1549 844.5  C 1541.44 844.5  1535.5 838.56  1535.5 831  C 1535.5 823.44  1541.44 817.5  1549 817.5  Z " stroke-width="1" stroke="#000000" fill="none" stroke-opacity="0.2" />
  </g>
</svg>