<?xml version="1.0" encoding="utf-8"?>
<svg version="1.1" xmlns:xlink="http://www.w3.org/1999/xlink" width="57px" height="57px" xmlns="http://www.w3.org/2000/svg">
  <g transform="matrix(1 0 0 1 -1559 -521 )">
    <path d="M 1587.5 525  C 1601.22 525  1612 535.78  1612 549.5  C 1612 563.22  1601.22 574  1587.5 574  C 1573.78 574  1563 563.22  1563 549.5  C 1563 535.78  1573.78 525  1587.5 525  Z " fill-rule="nonzero" fill="#fce122" stroke="none" />
    <path d="M 1587.5 523.5  C 1602.06 523.5  1613.5 534.94  1613.5 549.5  C 1613.5 564.06  1602.06 575.5  1587.5 575.5  C 1572.94 575.5  1561.5 564.06  1561.5 549.5  C 1561.5 534.94  1572.94 523.5  1587.5 523.5  Z " stroke-width="5" stroke="#ffffff" fill="none" />
  </g>
</svg>