<?xml version="1.0" encoding="utf-8"?>
<svg version="1.1" xmlns:xlink="http://www.w3.org/1999/xlink" width="357px" height="77px" xmlns="http://www.w3.org/2000/svg">
  <defs>
    <linearGradient gradientUnits="userSpaceOnUse" x1="268.5" y1="486" x2="268.5" y2="563" id="LinearGradient2">
      <stop id="Stop3" stop-color="#ffffff" offset="0" />
      <stop id="Stop4" stop-color="#f2f2f2" offset="0" />
      <stop id="Stop5" stop-color="#e4e4e4" offset="1" />
      <stop id="Stop6" stop-color="#ffffff" offset="1" />
    </linearGradient>
  </defs>
  <g transform="matrix(1 0 0 1 -90 -486 )">
    <path d="M 91 496  A 9 9 0 0 1 100 487 L 437 487  A 9 9 0 0 1 446 496 L 446 553  A 9 9 0 0 1 437 562 L 100 562  A 9 9 0 0 1 91 553 L 91 496  Z " fill-rule="nonzero" fill="url(#LinearGradient2)" stroke="none" />
    <path d="M 90.5 496  A 9.5 9.5 0 0 1 100 486.5 L 437 486.5  A 9.5 9.5 0 0 1 446.5 496 L 446.5 553  A 9.5 9.5 0 0 1 437 562.5 L 100 562.5  A 9.5 9.5 0 0 1 90.5 553 L 90.5 496  Z " stroke-width="1" stroke="#000000" fill="none" stroke-opacity="0.2" />
  </g>
</svg>