<?xml version="1.0" encoding="utf-8"?>
<svg version="1.1" xmlns:xlink="http://www.w3.org/1999/xlink" width="130px" height="130px" xmlns="http://www.w3.org/2000/svg">
  <defs>
    <filter x="92px" y="588px" width="130px" height="130px" filterUnits="userSpaceOnUse" id="filter7">
      <feOffset dx="1" dy="1" in="SourceAlpha" result="shadowOffsetInner" />
      <feGaussianBlur stdDeviation="2.5" in="shadowOffsetInner" result="shadowGaussian" />
      <feComposite in2="shadowGaussian" operator="atop" in="SourceAlpha" result="shadowComposite" />
      <feColorMatrix type="matrix" values="0 0 0 0 0  0 0 0 0 0  0 0 0 0 0  0 0 0 0.698039215686274 0  " in="shadowComposite" />
    </filter>
    <g id="widget8">
      <path d="M 156 596  C 187.36 596  212 620.64  212 652  C 212 683.36  187.36 708  156 708  C 124.64 708  100 683.36  100 652  C 100 620.64  124.64 596  156 596  Z " fill-rule="nonzero" fill="#fce122" stroke="none" />
      <path d="M 156 594.5  C 188.2 594.5  213.5 619.8  213.5 652  C 213.5 684.2  188.2 709.5  156 709.5  C 123.8 709.5  98.5 684.2  98.5 652  C 98.5 619.8  123.8 594.5  156 594.5  Z " stroke-width="5" stroke="#ffffff" fill="none" />
    </g>
  </defs>
  <g transform="matrix(1 0 0 1 -92 -588 )">
    <use xlink:href="#widget8" filter="url(#filter7)" />
    <use xlink:href="#widget8" />
  </g>
</svg>