<?xml version="1.0" encoding="utf-8"?>
<svg version="1.1" xmlns:xlink="http://www.w3.org/1999/xlink" width="40px" height="43px" xmlns="http://www.w3.org/2000/svg">
  <g transform="matrix(1 0 0 1 -250 -994 )">
    <path d="M 39.5991983967936 38.2815734989648  C 39.8663994655979 38.5783298826777  40 38.9195997239475  40 39.3053830227743  C 40 39.6911663216011  39.8663994655979 40.0324361628709  39.5991983967936 40.3291925465838  L 37.5951903807615 42.5548654244306  C 37.3279893119573 42.8516218081435  37.0207080828323 43  36.6733466933868 43  C 36.3259853039412 43  36.0187040748163 42.8516218081435  35.751503006012 42.5548654244306  L 20 25.0610766045549  L 4.24849699398798 42.5548654244306  C 3.9812959251837 42.8516218081435  3.67401469605878 43  3.32665330661323 43  C 2.97929191716767 43  2.67201068804275 42.8516218081435  2.40480961923848 42.5548654244306  L 0.400801603206413 40.3291925465838  C 0.133600534402138 40.0324361628709  0 39.6911663216011  0 39.3053830227743  C 0 38.9195997239475  0.133600534402138 38.5783298826777  0.400801603206413 38.2815734989648  L 19.0781563126253 17.5383022774327  C 19.3453573814295 17.2415458937198  19.6526386105544 17.0931677018634  20 17.0931677018634  C 20.3473613894456 17.0931677018634  20.6546426185705 17.2415458937198  20.9218436873747 17.5383022774327  L 39.5991983967936 38.2815734989648  Z M 39.5991983967936 21.1884057971014  C 39.8663994655979 21.4851621808144  40 21.8264320220842  40 22.212215320911  C 40 22.5979986197378  39.8663994655979 22.9392684610076  39.5991983967936 23.2360248447205  L 37.5951903807615 25.4616977225673  C 37.3279893119573 25.7584541062802  37.0207080828323 25.9068322981366  36.6733466933868 25.9068322981366  C 36.3259853039412 25.9068322981366  36.0187040748163 25.7584541062802  35.751503006012 25.4616977225673  L 20 7.96790890269151  L 4.24849699398798 25.4616977225673  C 3.9812959251837 25.7584541062802  3.67401469605878 25.9068322981366  3.32665330661323 25.9068322981366  C 2.97929191716767 25.9068322981366  2.67201068804275 25.7584541062802  2.40480961923848 25.4616977225673  L 0.400801603206413 23.2360248447205  C 0.133600534402138 22.9392684610076  0 22.5979986197378  0 22.212215320911  C 0 21.8264320220842  0.133600534402138 21.4851621808144  0.400801603206413 21.1884057971014  L 19.0781563126253 0.445134575569357  C 19.3453573814295 0.148378191856449  19.6526386105544 0  20 0  C 20.3473613894456 0  20.6546426185705 0.148378191856449  20.9218436873747 0.445134575569357  L 39.5991983967936 21.1884057971014  Z " fill-rule="nonzero" fill="#169bd5" stroke="none" transform="matrix(1 0 0 1 250 994 )" />
  </g>
</svg>