<?xml version="1.0" encoding="utf-8"?>
<svg version="1.1" xmlns:xlink="http://www.w3.org/1999/xlink" width="70px" height="42px" xmlns="http://www.w3.org/2000/svg">
  <g transform="matrix(1 0 0 1 -267 -630 )">
    <path d="M 66.9375 23.4012784090909  C 68.9791666666667 25.4794034090909  70 27.8607954545455  70 30.5454545454545  C 70 33.7073863636364  68.6328125 36.4069602272727  65.8984375 38.6441761363636  C 63.1640625 40.8813920454545  59.8645833333333 42  56 42  L 16.3333333333333 42  C 11.8368055555556 42  7.99045138888889 40.6924715909091  4.79427083333333 38.0774147727273  C 1.59809027777778 35.4623579545455  0 32.3153409090909  0 28.6363636363636  C 0 26.0113636363636  0.862847222222222 23.6100852272727  2.58854166666667 21.4325284090909  C 4.31423611111111 19.2549715909091  6.58680555555556 17.6292613636364  9.40625 16.5553977272727  C 9.35763888888889 15.9985795454545  9.33333333333333 15.5710227272727  9.33333333333333 15.2727272727273  C 9.33333333333333 11.0568181818182  11.15625 7.45738636363637  14.8020833333333 4.47443181818182  C 18.4479166666667 1.49147727272727  22.8472222222222 0  28 0  C 31.8402777777778 0  35.3220486111111 0.874999999999997  38.4453125 2.625  C 41.5685763888889 4.37499999999999  43.8472222222222 6.66193181818182  45.28125 9.48579545454545  C 46.9826388888889 8.25284090909091  49 7.63636363636363  51.3333333333333 7.63636363636363  C 53.9097222222222 7.63636363636363  56.109375 8.38210227272727  57.9322916666667 9.87357954545455  C 59.7552083333333 11.3650568181818  60.6666666666667 13.1647727272727  60.6666666666667 15.2727272727273  C 60.6666666666667 16.7642045454545  60.1684027777778 18.1363636363636  59.171875 19.3892045454545  C 62.3072916666667 19.9857954545455  64.8958333333333 21.3231534090909  66.9375 23.4012784090909  Z " fill-rule="nonzero" fill="#ffffff" stroke="none" transform="matrix(1 0 0 1 267 630 )" />
  </g>
</svg>